<svg width="148" height="50" viewBox="0 0 148 50" fill="none" xmlns="http://www.w3.org/2000/svg">
<path d="M50.0847 22.1997C51.1254 13.2335 42.0587 12.5541 42.0587 12.5541C40.7922 6.49866 30.5124 6.92151 30.5124 6.92151V50.0095C33.2588 49.094 36.4959 45.081 36.4959 45.081C47.2684 45.8548 47.4799 37.2664 47.4799 37.2664C57.3615 30.9421 50.0847 22.1997 50.0847 22.1997ZM31.9616 23.8521H33.3902L34.747 22.5301H34.7101V14.4302C33.7351 14.1901 33.0105 13.3095 33.0105 12.2606C33.0105 11.0269 34.0101 10.0252 35.2458 10.0252C36.4816 10.0252 37.4812 11.0248 37.4812 12.2606C37.4812 13.3013 36.7689 14.1778 35.8042 14.4261V21.5038L38.5445 18.8353H41.6461C41.7241 17.6714 42.693 16.7518 43.8753 16.7518C45.0577 16.7518 46.1107 17.7515 46.1107 18.9872C46.1107 20.2229 45.1111 21.2226 43.8753 21.2226C42.9763 21.2226 42.2045 20.693 41.8473 19.9294H38.9879L33.8336 24.9462H31.9616V23.8521ZM39.2281 42.5521C37.9944 42.5521 36.9927 41.5524 36.9927 40.3167C36.9927 40.3105 36.9927 40.3064 36.9927 40.3003L33.6263 37.3916H31.9595V36.2975H34.0327L37.3252 39.1425C37.7193 38.5062 38.4234 38.0813 39.2281 38.0813C40.4617 38.0813 41.4634 39.081 41.4634 40.3167C41.4634 41.5524 40.4638 42.5521 39.2281 42.5521ZM43.8959 35.3615C42.927 35.3615 42.1018 34.7457 41.7919 33.8836H31.9595V32.7895H41.6851C41.8473 31.7159 42.7751 30.8907 43.8938 30.8907C45.1275 30.8907 46.1292 31.8904 46.1292 33.1261C46.1292 34.3618 45.1295 35.3615 43.8938 35.3615H43.8959ZM48.0341 28.6123C47.0673 28.6123 46.2441 27.9985 45.9321 27.1384H40.1046L37.5551 29.5237H31.9595V28.4296H37.122L39.6714 26.0443H45.8213C45.9814 24.9687 46.9092 24.1415 48.032 24.1415C49.2657 24.1415 50.2674 25.1412 50.2674 26.3769C50.2674 27.6126 49.2678 28.6123 48.032 28.6123H48.0341Z" fill="url(#paint0_linear_2_45)"/>
<path d="M0.00736282 23.4889V31.4554C0.00736282 34.9675 4.09632 35.5443 4.09632 35.5443V19.7161C-0.360068 20.6069 0.00736282 23.4889 0.00736282 23.4889Z" fill="white"/>
<path d="M14.4254 25.2685C14.4254 28.015 16.6526 30.2421 19.3991 30.2421C22.1456 30.2421 24.3728 28.015 24.3728 25.2685C24.3728 22.522 22.1456 20.2948 19.3991 20.2948C16.6526 20.2948 14.4254 22.522 14.4254 25.2685Z" fill="white"/>
<path d="M28.3611 16.3086V7.08382C28.3611 7.08382 23.6625 7.46768 18.5657 8.77934V5.41088C19.5305 4.95724 20.1996 3.97606 20.1996 2.83887C20.1996 1.27061 18.929 0 17.3608 0C15.7925 0 14.5219 1.27061 14.5219 2.83887C14.5219 3.98632 15.2034 4.97571 16.1825 5.4232V9.45878C10.9133 11.1194 5.93141 13.8495 5.93141 18.2463V35.3842C5.93141 35.3842 4.88249 43.9275 28.3632 47.2303V37.3774C28.3632 37.3774 10.3344 38.3729 9.70425 31.2973C9.07613 24.2217 7.86915 19.3466 11.2232 18.4044C14.5773 17.4602 22.0717 16.0459 28.3611 16.3086Z" fill="white"/>
<path d="M67.9246 30.6937H60.7669L59.3937 34.4296H57.7289L63.4683 18.8989H65.2459L70.9626 34.4296H69.2979L67.9246 30.6937ZM64.3468 20.8818L61.2411 29.3902H67.4525L64.3468 20.8818Z" fill="white"/>
<path d="M83.5004 24.819V22.1403H85.0769V34.7438C85.0769 38.1882 82.7143 40.4605 79.3376 40.4605C76.1641 40.4605 73.9575 38.8409 73.4628 36.2751H75.0167C75.5339 37.9398 77.0878 39.0893 79.3376 39.0893C81.5873 39.0893 83.5004 37.5354 83.5004 34.7458V31.7078C82.7799 33.2843 81.07 34.6103 78.6397 34.6103C75.263 34.6103 72.7649 32.1122 72.7649 28.2634C72.7649 24.4146 75.263 21.9617 78.6397 21.9617C81.07 21.9617 82.8025 23.2672 83.5004 24.8211V24.819ZM78.9311 23.3349C76.3427 23.3349 74.3619 25.1351 74.3619 28.2634C74.3619 31.3917 76.3427 33.2371 78.9311 33.2371C81.5196 33.2371 83.5004 31.3466 83.5004 28.286C83.5004 25.2254 81.4518 23.3349 78.9311 23.3349Z" fill="white"/>
<path d="M93.9897 34.6103C90.5001 34.6103 87.9568 32.1799 87.9568 28.286C87.9568 24.3921 90.4549 21.9617 93.9897 21.9617C97.5244 21.9617 99.7967 24.5275 99.7967 27.6558C99.7967 28.1505 99.7967 28.4666 99.7515 28.8936H89.5558C89.6913 31.7735 91.6947 33.2822 93.9897 33.2822C96.0834 33.2822 97.4997 32.1799 97.9513 30.5357H99.6161C99.0536 32.8532 97.0728 34.6103 93.9897 34.6103ZM89.5558 27.6107H98.1977C98.2654 24.7513 96.1942 23.3123 93.9219 23.3123C91.6496 23.3123 89.7365 24.7533 89.5558 27.6107Z" fill="white"/>
<path d="M108.145 23.2898C105.85 23.2898 104.251 24.7307 104.251 27.7236V34.4297H102.675V22.1402H104.251V24.234C105.039 22.7027 106.614 21.9165 108.436 21.9165C111.228 21.9165 113.433 23.6264 113.433 27.2289V34.4317H111.879V27.4095C111.879 24.6856 110.393 23.2898 108.143 23.2898H108.145Z" fill="white"/>
<path d="M118.971 19.0571V22.1403H122.348V23.4684H118.971V31.0982C118.971 32.6069 119.488 33.079 120.907 33.079H122.348V34.4297H120.66C118.521 34.4297 117.374 33.5512 117.374 31.0982V23.4684H115.664V22.1403H117.374V19.0571H118.971Z" fill="white"/>
<path d="M139.674 18.4971C144.108 18.4971 147.708 21.8285 147.708 26.5312C147.708 29.3904 146.403 31.7301 144.399 33.1484L148 37.2012H144.083L141.698 34.3418C141.068 34.4998 140.37 34.5898 139.672 34.5898C135.238 34.5897 131.615 31.2582 131.615 26.5332L131.617 26.5312C131.617 21.8266 135.24 18.4973 139.674 18.4971ZM129.277 34.4297H126.127V23.6465H129.277V34.4297ZM139.677 21.3311C136.842 21.3311 134.86 23.3352 134.86 26.5312C134.861 29.7271 136.82 31.7754 139.677 31.7754C142.534 31.7752 144.47 29.7269 144.47 26.5312C144.47 23.3354 142.511 21.3313 139.677 21.3311ZM127.623 17.1211C127.646 17.0599 127.731 17.0599 127.754 17.1211L127.999 17.8027C128.272 18.5581 128.867 19.1537 129.622 19.4268L130.304 19.6709C130.365 19.6935 130.365 19.7791 130.304 19.8018L129.622 20.0469C128.867 20.3199 128.272 20.9148 127.999 21.6699L127.754 22.3516C127.731 22.413 127.646 22.4131 127.623 22.3516L127.379 21.6699C127.106 20.9146 126.51 20.3199 125.755 20.0469L125.073 19.8018C125.012 19.779 125.012 19.6936 125.073 19.6709L125.755 19.4268C126.51 19.1538 127.106 18.5581 127.379 17.8027L127.623 17.1211Z" fill="url(#paint1_linear_2_45)"/>
<defs>
<linearGradient id="paint0_linear_2_45" x1="13.1938" y1="67.7447" x2="44.8647" y2="10.2879" gradientUnits="userSpaceOnUse">
<stop stop-color="#04082D"/>
<stop offset="0.346967" stop-color="#0640EA"/>
<stop offset="1" stop-color="#47E2E4"/>
</linearGradient>
<linearGradient id="paint1_linear_2_45" x1="126.5" y1="41.21" x2="138.5" y2="15.71" gradientUnits="userSpaceOnUse">
<stop stop-color="#0640EA"/>
<stop offset="1" stop-color="#47E2E4"/>
</linearGradient>
</defs>
</svg>
