<svg width="300" height="102" viewBox="0 0 300 102" fill="none" xmlns="http://www.w3.org/2000/svg">
<path d="M101.523 44.9995C103.633 26.8248 85.2543 25.4476 85.2543 25.4476C82.687 13.1731 61.8495 14.0302 61.8495 14.0302V101.371C67.4167 99.5151 73.9784 91.3806 73.9784 91.3806C95.8145 92.9492 96.2431 75.5402 96.2431 75.5402C116.273 62.7206 101.523 44.9995 101.523 44.9995ZM64.787 48.349H67.683L70.4333 45.6694H70.3584V29.2506C68.382 28.7638 66.9132 26.9788 66.9132 24.8526C66.9132 22.3519 68.9396 20.3214 71.4444 20.3214C73.9492 20.3214 75.9756 22.3478 75.9756 24.8526C75.9756 26.9622 74.5318 28.7388 72.5761 29.2423V43.589L78.1309 38.1798H84.418C84.5761 35.8206 86.54 33.9566 88.9366 33.9566C91.3333 33.9566 93.4678 35.9829 93.4678 38.4877C93.4678 40.9926 91.4415 43.0189 88.9366 43.0189C87.1142 43.0189 85.5497 41.9454 84.8257 40.3976H79.0296L68.5817 50.5667H64.787V48.349ZM79.5165 86.2544C77.0158 86.2544 74.9853 84.2281 74.9853 81.7232C74.9853 81.7107 74.9853 81.7024 74.9853 81.6899L68.1615 75.794H64.7829V73.5763H68.9853L75.6593 79.3432C76.4582 78.0533 77.8854 77.192 79.5165 77.192C82.0171 77.192 84.0476 79.2184 84.0476 81.7232C84.0476 84.2281 82.0213 86.2544 79.5165 86.2544ZM88.9783 71.6789C87.0143 71.6789 85.3417 70.4307 84.7134 68.6831H64.7829V66.4654H84.497C84.8257 64.2892 86.7064 62.6166 88.9741 62.6166C91.4748 62.6166 93.5053 64.6429 93.5053 67.1477C93.5053 69.6526 91.4789 71.6789 88.9741 71.6789H88.9783ZM97.3665 57.998C95.4068 57.998 93.7383 56.7539 93.1058 55.0105H81.2932L76.1254 59.8454H64.7829V57.6277H75.2474L80.4152 52.7928H92.8811C93.2057 50.6125 95.0864 48.9357 97.3624 48.9357C99.8631 48.9357 101.894 50.962 101.894 53.4668C101.894 55.9717 99.8672 57.998 97.3624 57.998H97.3665Z" fill="url(#paint0_linear_4_57)"/>
<path d="M0.0149247 47.6126V63.7609C0.0149247 70.8802 8.30336 72.0494 8.30336 72.0494V39.965C-0.729869 41.7708 0.0149247 47.6126 0.0149247 47.6126Z" fill="#0C194F"/>
<path d="M29.2408 51.2199C29.2408 56.7872 33.7553 61.3017 39.3225 61.3017C44.8898 61.3017 49.4043 56.7872 49.4043 51.2199C49.4043 45.6527 44.8898 41.1382 39.3225 41.1382C33.7553 41.1382 29.2408 45.6527 29.2408 51.2199Z" fill="#0C194F"/>
<path d="M57.4889 33.058V14.3591C57.4889 14.3591 47.9647 15.1372 37.6333 17.796V10.968C39.5889 10.0485 40.9453 8.05958 40.9453 5.75447C40.9453 2.57557 38.3697 0 35.1908 0C32.012 0 29.4364 2.57557 29.4364 5.75447C29.4364 8.08039 30.8178 10.0859 32.8025 10.993V19.1732C22.1216 22.5394 12.0232 28.0733 12.0232 36.9859V71.7249C12.0232 71.7249 9.89698 89.0424 57.493 95.7372V75.7651C57.493 75.7651 20.9482 77.7831 19.6708 63.4406C18.3976 49.0981 15.951 39.2161 22.7499 37.3063C29.5487 35.3923 44.74 32.5254 57.4889 33.058Z" fill="#0C194F"/>
<path d="M137.685 62.217H123.176L120.393 69.7898H117.018L128.652 38.3087H132.255L143.843 69.7898H140.469L137.685 62.217ZM130.433 42.3281L124.138 59.5749H136.728L130.433 42.3281Z" fill="#0C194F"/>
<path d="M169.258 50.3088V44.8788H172.453V70.4265C172.453 77.4084 167.664 82.0145 160.82 82.0145C154.387 82.0145 149.914 78.7316 148.911 73.5305H152.061C153.11 76.905 156.259 79.2351 160.82 79.2351C165.38 79.2351 169.258 76.0853 169.258 70.4307V64.2726C167.797 67.4681 164.331 70.1561 159.405 70.1561C152.56 70.1561 147.497 65.0923 147.497 57.2907C147.497 49.4891 152.56 44.5168 159.405 44.5168C164.331 44.5168 167.843 47.1632 169.258 50.3129V50.3088ZM159.996 47.3005C154.749 47.3005 150.734 50.9495 150.734 57.2907C150.734 63.6318 154.749 67.3724 159.996 67.3724C165.243 67.3724 169.258 63.5403 169.258 57.3365C169.258 51.1326 165.105 47.3005 159.996 47.3005Z" fill="#0C194F"/>
<path d="M190.52 70.1561C183.446 70.1561 178.291 65.2296 178.291 57.3365C178.291 49.4433 183.355 44.5168 190.52 44.5168C197.685 44.5168 202.291 49.7179 202.291 56.0591C202.291 57.0618 202.291 57.7026 202.199 58.5681H181.532C181.807 64.4058 185.868 67.464 190.52 67.464C194.764 67.464 197.635 65.2296 198.55 61.8968H201.925C200.785 66.5944 196.769 70.1561 190.52 70.1561ZM181.532 55.9675H199.05C199.187 50.1715 194.989 47.2547 190.383 47.2547C185.776 47.2547 181.899 50.1756 181.532 55.9675Z" fill="#0C194F"/>
<path d="M219.213 47.209C214.561 47.209 211.32 50.13 211.32 56.1965V69.79H208.125V44.879H211.32V49.123C212.918 46.019 216.109 44.4254 219.804 44.4254C225.463 44.4254 229.932 47.8914 229.932 55.1937V69.7942H226.782V55.5599C226.782 50.0384 223.769 47.209 219.209 47.209H219.213Z" fill="#0C194F"/>
<path d="M241.157 38.6295V44.8791H248.002V47.5712H241.157V63.0371C241.157 66.0953 242.206 67.0523 245.081 67.0523H248.002V69.7902H244.582C240.246 69.7902 237.92 68.0093 237.92 63.0371V47.5712H234.454V44.8791H237.92V38.6295H241.157Z" fill="#0C194F"/>
<path d="M283.124 37.4937C292.111 37.4937 299.41 44.2464 299.41 53.7789C299.41 59.575 296.763 64.3188 292.702 67.1939L300.001 75.4068H292.061L287.226 69.6109C285.949 69.9313 284.534 70.1148 283.12 70.1148C274.132 70.1148 266.789 63.3611 266.789 53.7828L266.793 53.7789C266.793 44.2423 274.136 37.4939 283.124 37.4937ZM262.049 69.7896H255.662V47.9322H262.049V69.7896ZM283.128 43.2398C277.382 43.2398 273.367 47.3005 273.367 53.7789C273.367 60.2574 277.337 64.4098 283.128 64.4098C288.92 64.4095 292.843 60.2572 292.843 53.7789C292.843 47.3006 288.874 43.2401 283.128 43.2398ZM258.696 34.7057C258.742 34.5809 258.916 34.5809 258.961 34.7057L259.457 36.0865C260.01 37.6177 261.217 38.8251 262.749 39.3785L264.129 39.8736C264.254 39.9194 264.254 40.0935 264.129 40.1393L262.749 40.6344C261.217 41.1878 260.01 42.3952 259.457 43.9264L258.961 45.3072C258.916 45.4321 258.742 45.4321 258.696 45.3072L258.201 43.9264C257.647 42.3952 256.44 41.1878 254.909 40.6344L253.528 40.1393C253.403 40.0935 253.403 39.9194 253.528 39.8736L254.909 39.3785C256.44 38.8251 257.647 37.6177 258.201 36.0865L258.696 34.7057Z" fill="url(#paint1_linear_4_57)"/>
<defs>
<linearGradient id="paint0_linear_4_57" x1="26.7442" y1="137.321" x2="90.9422" y2="20.854" gradientUnits="userSpaceOnUse">
<stop stop-color="#04082D"/>
<stop offset="0.346967" stop-color="#0640EA"/>
<stop offset="1" stop-color="#47E2E4"/>
</linearGradient>
<linearGradient id="paint1_linear_4_57" x1="256.419" y1="83.5327" x2="280.743" y2="31.8442" gradientUnits="userSpaceOnUse">
<stop stop-color="#0640EA"/>
<stop offset="1" stop-color="#47E2E4"/>
</linearGradient>
</defs>
</svg>
