<svg width="100" height="100" viewBox="0 0 100 100" fill="none" xmlns="http://www.w3.org/2000/svg">
<path d="M95.133 45.2942C97.0952 28.3888 80.0001 27.1077 80.0001 27.1077C77.6122 15.6904 58.2298 16.4877 58.2298 16.4877V97.7288C63.4082 96.0027 69.5117 88.4363 69.5117 88.4363C89.8229 89.8954 90.2216 73.7021 90.2216 73.7021C108.853 61.7777 95.133 45.2942 95.133 45.2942ZM60.9622 48.4098H63.6559L66.2142 45.9173H66.1445V30.6452C64.3061 30.1924 62.9399 28.532 62.9399 26.5543C62.9399 24.2282 64.8248 22.3396 67.1547 22.3396C69.4846 22.3396 71.3694 24.2244 71.3694 26.5543C71.3694 28.5165 70.0264 30.1691 68.2074 30.6374V43.9822L73.3742 38.9508H79.2222C79.3693 36.7564 81.1961 35.0225 83.4253 35.0225C85.6546 35.0225 87.6401 36.9073 87.6401 39.2372C87.6401 41.5671 85.7553 43.452 83.4253 43.452C81.7302 43.452 80.2749 42.4534 79.6015 41.0137H74.2102L64.4919 50.4726H60.9622V48.4098ZM74.663 83.6681C72.337 83.6681 70.4483 81.7833 70.4483 79.4533C70.4483 79.4417 70.4483 79.434 70.4483 79.4224L64.101 73.9382H60.9583V71.8753H64.8673L71.0753 77.2395C71.8184 76.0397 73.1459 75.2386 74.663 75.2386C76.9891 75.2386 78.8778 77.1234 78.8778 79.4533C78.8778 81.7833 76.9929 83.6681 74.663 83.6681ZM83.4641 70.1105C81.6373 70.1105 80.0814 68.9494 79.497 67.3239H60.9583V65.261H79.2958C79.6015 63.2369 81.3509 61.681 83.4602 61.681C85.7862 61.681 87.6749 63.5658 87.6749 65.8957C87.6749 68.2256 85.7901 70.1105 83.4602 70.1105H83.4641ZM91.2665 57.385C89.4436 57.385 87.8917 56.2278 87.3034 54.6061H76.3156L71.5087 59.1034H60.9583V57.0405H70.6921L75.499 52.5433H87.0944C87.3963 50.5152 89.1456 48.9555 91.2627 48.9555C93.5887 48.9555 95.4774 50.8403 95.4774 53.1702C95.4774 55.5001 93.5926 57.385 91.2627 57.385H91.2665Z" fill="url(#paint0_linear_4_29)"/>
<path d="M0.713467 47.7249V62.7455C0.713467 69.3675 8.42307 70.4551 8.42307 70.4551V40.6113C0.0206863 42.291 0.713467 47.7249 0.713467 47.7249Z" fill="#0C194F"/>
<path d="M27.8983 51.0803C27.8983 56.2588 32.0976 60.458 37.276 60.458C42.4545 60.458 46.6537 56.2588 46.6537 51.0803C46.6537 45.9019 42.4545 41.7026 37.276 41.7026C32.0976 41.7026 27.8983 45.9019 27.8983 51.0803Z" fill="#0C194F"/>
<path d="M54.1737 34.1868V16.7937C54.1737 16.7937 45.3146 17.5175 35.7047 19.9906V13.6394C37.5237 12.7841 38.7854 10.9341 38.7854 8.78998C38.7854 5.83308 36.3897 3.43738 33.4328 3.43738C30.4759 3.43738 28.0802 5.83308 28.0802 8.78998C28.0802 10.9535 29.3652 12.8189 31.2113 13.6627V21.2716C21.2763 24.4027 11.8831 29.5502 11.8831 37.8403V70.1533C11.8831 70.1533 9.90537 86.2615 54.1775 92.4887V73.9114C54.1775 73.9114 20.1848 75.7885 18.9967 62.4476C17.8124 49.1067 15.5366 39.9148 21.8607 38.1383C28.1847 36.358 42.3151 33.6914 54.1737 34.1868Z" fill="#0C194F"/>
<defs>
<linearGradient id="paint0_linear_4_29" x1="25.5762" y1="131.168" x2="85.2908" y2="22.835" gradientUnits="userSpaceOnUse">
<stop stop-color="#04082D"/>
<stop offset="0.346967" stop-color="#0640EA"/>
<stop offset="1" stop-color="#47E2E4"/>
</linearGradient>
</defs>
</svg>
