<svg width="100" height="100" viewBox="0 0 100 100" fill="none" xmlns="http://www.w3.org/2000/svg">
<path d="M95.133 45.2943C97.0952 28.3889 80.0001 27.1079 80.0001 27.1079C77.6122 15.6905 58.2298 16.4878 58.2298 16.4878V97.7289C63.4082 96.0028 69.5117 88.4364 69.5117 88.4364C89.8229 89.8955 90.2216 73.7022 90.2216 73.7022C108.853 61.7779 95.133 45.2943 95.133 45.2943ZM60.9622 48.4099H63.6559L66.2142 45.9174H66.1445V30.6453C64.3061 30.1925 62.9399 28.5321 62.9399 26.5544C62.9399 24.2284 64.8248 22.3397 67.1547 22.3397C69.4846 22.3397 71.3694 24.2245 71.3694 26.5544C71.3694 28.5166 70.0264 30.1693 68.2074 30.6376V43.9823L73.3742 38.9509H79.2222C79.3693 36.7565 81.1961 35.0226 83.4253 35.0226C85.6546 35.0226 87.6401 36.9074 87.6401 39.2373C87.6401 41.5672 85.7553 43.4521 83.4253 43.4521C81.7302 43.4521 80.2749 42.4535 79.6015 41.0138H74.2102L64.4919 50.4728H60.9622V48.4099ZM74.663 83.6682C72.337 83.6682 70.4483 81.7834 70.4483 79.4535C70.4483 79.4419 70.4483 79.4341 70.4483 79.4225L64.101 73.9383H60.9583V71.8754H64.8673L71.0753 77.2397C71.8184 76.0399 73.1459 75.2387 74.663 75.2387C76.9891 75.2387 78.8778 77.1235 78.8778 79.4535C78.8778 81.7834 76.9929 83.6682 74.663 83.6682ZM83.4641 70.1106C81.6373 70.1106 80.0814 68.9495 79.497 67.324H60.9583V65.2611H79.2958C79.6015 63.237 81.3509 61.6811 83.4602 61.6811C85.7862 61.6811 87.6749 63.5659 87.6749 65.8959C87.6749 68.2258 85.7901 70.1106 83.4602 70.1106H83.4641ZM91.2665 57.3851C89.4436 57.3851 87.8917 56.2279 87.3034 54.6062H76.3156L71.5087 59.1035H60.9583V57.0406H70.6921L75.499 52.5434H87.0944C87.3963 50.5153 89.1456 48.9556 91.2627 48.9556C93.5887 48.9556 95.4774 50.8404 95.4774 53.1704C95.4774 55.5003 93.5926 57.3851 91.2627 57.3851H91.2665Z" fill="url(#paint0_linear_4_30)"/>
<path d="M0.713467 47.725V62.7456C0.713467 69.3677 8.42307 70.4552 8.42307 70.4552V40.6115C0.0206863 42.2912 0.713467 47.725 0.713467 47.725Z" fill="white"/>
<path d="M27.8983 51.0805C27.8983 56.2589 32.0976 60.4582 37.276 60.4582C42.4545 60.4582 46.6537 56.2589 46.6537 51.0805C46.6537 45.902 42.4545 41.7028 37.276 41.7028C32.0976 41.7028 27.8983 45.902 27.8983 51.0805Z" fill="white"/>
<path d="M54.1737 34.1869V16.7938C54.1737 16.7938 45.3146 17.5176 35.7047 19.9907V13.6396C37.5237 12.7842 38.7854 10.9342 38.7854 8.7901C38.7854 5.83321 36.3897 3.4375 33.4328 3.4375C30.4759 3.4375 28.0802 5.83321 28.0802 8.7901C28.0802 10.9536 29.3652 12.8191 31.2113 13.6628V21.2718C21.2763 24.4028 11.8831 29.5503 11.8831 37.8405V70.1535C11.8831 70.1535 9.90537 86.2616 54.1775 92.4889V73.9115C54.1775 73.9115 20.1848 75.7886 18.9967 62.4477C17.8124 49.1069 15.5366 39.9149 21.8607 38.1385C28.1847 36.3581 42.3151 33.6915 54.1737 34.1869Z" fill="white"/>
<defs>
<linearGradient id="paint0_linear_4_30" x1="25.5762" y1="131.168" x2="85.2908" y2="22.8351" gradientUnits="userSpaceOnUse">
<stop stop-color="#04082D"/>
<stop offset="0.346967" stop-color="#0640EA"/>
<stop offset="1" stop-color="#47E2E4"/>
</linearGradient>
</defs>
</svg>
